# xmcd
#
# Track frame offsets: 
#        150
#        15527
#        25613
#        41919
#        55239
#        68774
#        80168
#        90921
#        104904
#        119447
#        132120
#        142380
#        155662
#        171654
#        182147
#        191810
#        209388
#        227344
#        242913
#        255184
#        272538
#        285686
#        300632
#
# Disc length: 4217 seconds
#
# Revision: 0
# Processed by: cddbd v1.5.1PL2 Copyright (c) Steve Scherf et al.
# Submitted via: ExactAudioCopy v0.95b4
#
DISCID=51107717
DTITLE=Various Artist - Ferstival 2005
DYEAR=2005
DGENRE=Norteña
TTITLE0=Temerarios - Que raro tiene
TTITLE1=El coyote - Piquetes de hormiga
TTITLE2=El gigante de America - Basta
TTITLE3=Valentin Elizalde - La mas deseada
TTITLE4=Morena hechizera - Quiero cantar
TTITLE5=El recodo - Delante de mi
TTITLE6=Polo Urias - Mi primer amor
TTITLE7=Alacranes - A cambio de que
TTITLE8=Lidia avila - Para que
TTITLE9=Joan Sebastian - Margarita
TTITLE10=Banda Jerez - La Baraja
TTITLE11=Huracanes - Te perdona una vez
TTITLE12=Duelo - Hablar de ti
TTITLE13=Patrulla 81 - Como pude enamorme de ti
TTITLE14=Lupillo Rivera - Que tal si te compro
TTITLE15=Palomo - Yo te propongo
TTITLE16=Costumbre - Cuanto te amo
TTITLE17=Horoscopos -  Dos locos
TTITLE18=Huracanes - La hielera
TTITLE19=Valentin Elizalde - Volvere a amar
TTITLE20=Violento - Simplemente amigos
TTITLE21=La propiedad - Adios, adios amor
TTITLE22=Bryndis - El quinto trago
EXTD=
EXTT0=
EXTT1=
EXTT2=
EXTT3=
EXTT4=
EXTT5=
EXTT6=
EXTT7=
EXTT8=
EXTT9=
EXTT10=
EXTT11=
EXTT12=
EXTT13=
EXTT14=
EXTT15=
EXTT16=
EXTT17=
EXTT18=
EXTT19=
EXTT20=
EXTT21=
EXTT22=
PLAYORDER=
